<svg width="18" height="19" viewBox="0 0 18 19" fill="none" xmlns="http://www.w3.org/2000/svg">
<path fill-rule="evenodd" clip-rule="evenodd" d="M9.0001 7.8C9.95488 7.8 10.8706 7.42071 11.5457 6.74558C12.2208 6.07045 12.6001 5.15478 12.6001 4.2C12.6001 3.24522 12.2208 2.32955 11.5457 1.65441C10.8706 0.979283 9.95488 0.599998 9.0001 0.599998C8.04532 0.599998 7.12964 0.979283 6.45451 1.65441C5.77938 2.32955 5.4001 3.24522 5.4001 4.2C5.4001 5.15478 5.77938 6.07045 6.45451 6.74558C7.12964 7.42071 8.04532 7.8 9.0001 7.8ZM0.600098 18.6C0.600098 17.4969 0.81737 16.4046 1.23951 15.3855C1.66165 14.3663 2.28039 13.4403 3.0604 12.6603C3.84041 11.8803 4.76642 11.2616 5.78556 10.8394C6.80469 10.4173 7.89699 10.2 9.0001 10.2C10.1032 10.2 11.1955 10.4173 12.2146 10.8394C13.2338 11.2616 14.1598 11.8803 14.9398 12.6603C15.7198 13.4403 16.3385 14.3663 16.7607 15.3855C17.1828 16.4046 17.4001 17.4969 17.4001 18.6H0.600098Z" fill="#9FB3B2"/>
</svg>
